<?xml version="1.0" standalone="no"?><!DOCTYPE svg PUBLIC "-//W3C//DTD SVG 1.1//EN" "http://www.w3.org/Graphics/SVG/1.1/DTD/svg11.dtd"><svg t="1514538429214" class="icon" style="" viewBox="0 0 1024 1024" version="1.1" xmlns="http://www.w3.org/2000/svg" p-id="7189" xmlns:xlink="http://www.w3.org/1999/xlink" width="64" height="64"><defs><style type="text/css"></style></defs><path d="M512 565.78048H145.36704c-17.558187 0-31.757653 17.08032-31.757653 38.161067 0 21.026133 14.21312 38.0928 31.757653 38.0928H512c17.558187 0 31.798613-17.066667 31.798613-38.0928 0-21.080747-14.240427-38.161067-31.798613-38.161067zM365.049173 701.494613h-219.682133c-17.558187 0-31.757653 17.053013-31.757653 38.147414 0 21.026133 14.21312 38.0928 31.757653 38.0928h219.682133c17.53088 0 31.771307-17.066667 31.771307-38.0928 0-21.0944-14.240427-38.147413-31.771307-38.147414z" p-id="7190" fill="#1296db"></path><path d="M906.007893 102.4H118.00576C56.68864 102.4 6.826667 162.24256 6.826667 235.80672v552.372907C6.826667 861.75744 56.68864 921.6 118.00576 921.6h788.002133C967.31136 921.6 1017.173333 861.75744 1017.173333 788.19328V235.80672C1017.173333 162.24256 967.31136 102.4 906.007893 102.4zM70.36928 348.501333h548.932267l-82.916694 77.53728H70.36928v-77.53728z m883.288747 439.691947c0 31.5392-21.353813 57.166507-47.650134 57.166507H118.00576c-26.29632 0-47.63648-25.627307-47.63648-57.166507V502.265173h485.266773l0.98304 1.460907 1.611094-1.460907h159.730346l0.996694 1.460907 1.59744-1.460907h233.10336v285.928107zM639.781547 426.038613l82.889386-77.53728h58.968747l-82.930347 77.53728h-58.927786z m313.87648 0h-151.552l82.930346-77.53728h68.621654v77.53728z m0-153.818453H70.36928V235.80672c0-31.5392 21.34016-57.166507 47.63648-57.166507h788.002133c26.29632 0 47.650133 25.627307 47.650134 57.166507v36.41344z" p-id="7191" fill="#1296db"></path></svg>