<?xml version="1.0" standalone="no"?><!DOCTYPE svg PUBLIC "-//W3C//DTD SVG 1.1//EN" "http://www.w3.org/Graphics/SVG/1.1/DTD/svg11.dtd"><svg t="1514537845895" class="icon" style="" viewBox="0 0 1024 1024" version="1.1" xmlns="http://www.w3.org/2000/svg" p-id="4226" xmlns:xlink="http://www.w3.org/1999/xlink" width="64" height="64"><defs><style type="text/css"></style></defs><path d="M318.276369 251.313769h0.357133c12.993942 0 25.211195-5.060249 34.400485-14.249539s14.250562-21.406542 14.250562-34.402531v-79.0371c0-26.925233-21.903869-48.829102-48.829102-48.829102s-48.829102 21.904892-48.829102 48.829102v79.255065c0.058328 12.994965 5.172813 25.189705 14.404058 34.339086 9.169847 9.087982 21.333888 14.09502 34.245966 14.095019z" p-id="4227" fill="#f9cd13"></path><path d="M900.667555 228.639351a49.354058 49.354058 0 0 0-48.465828-48.462759l-68.594261-0.001023v48.651047c0 38.544875-31.360242 69.905116-69.905116 69.905116s-69.905116-31.360242-69.905117-69.905116v-48.651047h-57.784054v48.651047c0 38.544875-31.359218 69.905116-69.905116 69.905116-38.544875 0-69.904093-31.360242-69.904093-69.905116v-48.651047h-57.785078v48.650023c-0.004093 38.541805-31.363312 69.897953-69.905116 69.897953-38.542828 0-69.902046-31.356149-69.905117-69.896929v-48.651047h-68.412112l-0.190335 0.001023a49.382711 49.382711 0 0 0-48.458665 48.458665l-0.002047 0.095168v671.74526l-0.016373 0.444115c-0.332575 12.517081 4.230348 24.413016 12.84761 33.496905 8.616238 9.087982 20.256346 14.271028 32.773427 14.60258l675.786297 0.004093 0.069585-0.002046c26.120914-0.401136 47.142693-21.962198 46.89096-48.077996l0.771573-672.106487-0.001024-0.197498zM781.08297 441.770496c-5.41329 9.371438-15.495926 15.192004-26.321482 15.192003H277.314445c-10.821463 0.002047-20.907169-5.820566-26.318412-15.192003-5.411243-9.372461-5.411243-21.015639 0-30.388101 5.411243-9.371438 15.494902-15.193027 26.314319-15.193027h477.453182c10.821463-0.001023 20.906146 5.820566 26.320459 15.192003 5.41022 9.373485 5.41022 21.017686-0.001023 30.389125zM277.315468 574.026682h477.447043c16.754592 0 30.386054 13.629415 30.386054 30.385031s-13.631462 30.387078-30.386054 30.387077H277.315468c-16.754592 0-30.385031-13.631462-30.385031-30.387077s13.630439-30.385031 30.385031-30.385031z m0.118704 177.716564h475.728911c16.754592 0 30.385031 13.629415 30.385031 30.385031s-13.630439 30.387078-30.385031 30.387078H278.994714c-16.765849 0-30.405497-13.640672-30.405497-30.407544 0-16.241916 12.801561-29.550013 28.844955-30.364565z" p-id="4228" fill="#f9cd13"></path><path d="M715.045951 251.313769h0.35304c12.997012 0 25.214265-5.060249 34.401508-14.249539 9.190313-9.188266 14.252609-21.406542 14.252609-34.402531v-79.0371c0-26.925233-21.904892-48.829102-48.832172-48.829102-26.925233 0-48.829102 21.904892-48.829102 48.829102v79.255065c0.058328 12.994965 5.173836 25.189705 14.405082 34.339086 9.171893 9.087982 21.332864 14.09502 34.249035 14.095019zM516.053828 251.313769h0.355087c12.994965 0 25.213241-5.060249 34.400484-14.249539 9.18929-9.188266 14.251585-21.406542 14.251586-34.402531v-79.0371c0-26.925233-21.904892-48.829102-48.831149-48.829102s-48.829102 21.904892-48.829102 48.829102v79.255065c0.058328 12.994965 5.173836 25.189705 14.405082 34.339086 9.171893 9.087982 21.333888 14.09502 34.248012 14.095019z" p-id="4229" fill="#f9cd13"></path></svg>