<?xml version="1.0" standalone="no"?><!DOCTYPE svg PUBLIC "-//W3C//DTD SVG 1.1//EN" "http://www.w3.org/Graphics/SVG/1.1/DTD/svg11.dtd"><svg t="1514538336448" class="icon" style="" viewBox="0 0 1024 1024" version="1.1" xmlns="http://www.w3.org/2000/svg" p-id="6768" xmlns:xlink="http://www.w3.org/1999/xlink" width="64" height="64"><defs><style type="text/css"></style></defs><path d="M731.278 428.087c-56.693 0-108.914 18.964-150.799 50.929h-377.549c-16.916 0-30.813 13.924-30.813 30.871v4.125c0 16.947 13.894 30.861 30.813 30.861h317.396c-23.596 37.471-37.491 81.721-38.146 129.161h-279.251c-16.916 0-30.813 13.925-30.813 30.87v4.125c0 16.937 13.894 30.871 30.813 30.871h287.024c15.923 62.278 55.243 115.136 108 148.661h-466.448c-48.265 0-87.685-39.57-87.685-87.842v-577.437c0-48.365 39.498-87.842 87.685-87.842h760.966c48.284 0 87.703 39.568 87.703 87.842v445.167c-4.849-133.552-114.4-240.361-248.897-240.361zM851.881 314.88c0-16.955-13.894-30.871-30.812-30.871h-618.138c-16.916 0-30.813 13.915-30.813 30.871v4.114c0 16.946 13.894 30.87 30.813 30.87h618.138c16.916 0 30.812-13.924 30.812-30.87v-4.114zM731.278 478.748c109.629 0 198.605 89.025 198.605 198.954 0 109.919-88.976 198.954-198.605 198.954-109.65 0-198.606-89.036-198.606-198.954 0-109.828 88.878-198.954 198.606-198.954zM667.29 738.141h55.877v55.043c0 7.675 5.724 13.905 12.783 13.905 7.056 0 12.801-6.231 12.801-13.905v-55.043h55.461c7.058 0 12.802-6.231 12.802-13.894 0-7.673-5.746-13.905-12.802-13.905h-55.461v-39.616h55.778c7.058 0 12.802-6.242 12.802-13.905 0-7.664-5.746-13.905-12.802-13.905h-50.947l51.386-55.858c2.426-2.624 3.757-6.103 3.757-9.819s-1.331-7.197-3.757-9.819c-2.405-2.634-5.626-4.075-9.045-4.075-3.398 0-6.62 1.44-9.044 4.075l-51.485 55.939-51.963-56.466c-2.405-2.624-5.627-4.064-9.025-4.064-3.419 0-6.641 1.44-9.045 4.064-2.426 2.633-3.757 6.123-3.757 9.829 0 3.717 1.331 7.215 3.757 9.841l51.863 56.356h-49.538c-7.058 0-12.802 6.241-12.802 13.905 0 7.663 5.746 13.905 12.802 13.905h55.481v39.616h-55.877c-7.058 0-12.782 6.233-12.782 13.905-0.001 7.663 5.722 13.894 12.781 13.894z" p-id="6769" fill="#0b988f"></path></svg>