<?xml version="1.0" standalone="no"?><!DOCTYPE svg PUBLIC "-//W3C//DTD SVG 1.1//EN" "http://www.w3.org/Graphics/SVG/1.1/DTD/svg11.dtd"><svg t="1514538497650" class="icon" style="" viewBox="0 0 1024 1024" version="1.1" xmlns="http://www.w3.org/2000/svg" p-id="7595" xmlns:xlink="http://www.w3.org/1999/xlink" width="64" height="64"><defs><style type="text/css"></style></defs><path d="M360.896 1014.08H96.416c-48.608 0-91.776-41.472-91.776-88.128V91.904c0-46.624 43.168-88 91.776-88h831.168c48.576 0 91.776 41.408 91.776 88V594.4h-80.992V91.904c0-5.184-5.376-10.368-10.784-10.368H96.416c-5.408 0-10.816 5.216-10.816 10.368v834.08c0 5.216 5.408 10.368 10.816 10.368h264.48v77.728zM182.752 195.52h528.96v51.808h-528.96V195.52z m0 160.608h399.392v51.776H182.752v-51.776z m0 155.424h226.656v51.776H182.752v-51.776z m647.712 10.4c0-72.544-59.36-134.688-140.352-134.688-75.552 0-140.384 56.96-140.384 134.688 0 72.448 59.36 134.624 140.384 134.624 75.584-5.12 140.352-62.208 140.352-134.624m43.168 176.16h-27.04l-145.696 227.84 53.984-196.8c0-5.248 0-10.368-5.376-15.552l-48.608-51.776c-5.376-5.248-16.224-5.248-21.6 0L630.752 713.6c-5.376 5.184-5.376 10.304-5.376 15.552l53.952 196.8L533.6 698.112h-27.008c-91.744 0-91.744 56.896-91.744 134.624v170.944c0 10.4 5.344 15.552 16.16 15.552h518.208c10.784 0 16.192-5.152 16.192-15.552V832.736c5.312-77.696 5.312-134.624-91.776-134.624" fill="#31d66c" p-id="7596"></path></svg>