<?xml version="1.0" standalone="no"?><!DOCTYPE svg PUBLIC "-//W3C//DTD SVG 1.1//EN" "http://www.w3.org/Graphics/SVG/1.1/DTD/svg11.dtd"><svg t="1514538106615" class="icon" style="" viewBox="0 0 1024 1024" version="1.1" xmlns="http://www.w3.org/2000/svg" p-id="5644" xmlns:xlink="http://www.w3.org/1999/xlink" width="64" height="64"><defs><style type="text/css"></style></defs><path d="M1013.125 695.592H764.158c-26.6 0-45.75-5.321-59.582-15.962-5.799-4.013-11.025-8.407-15.545-13.09a107.545 107.545 0 0 1-6.25-7.264c-3.32-4.383-6.025-8.964-7.996-13.692-7.449-14.895-11.703-31.919-12.768-51.07 0-28.728 10.641-52.134 29.791-71.285 19.152-19.15 43.623-28.728 71.285-28.728h251.095V343.419c0-27.662-10.641-52.134-29.791-71.285-19.15-20.217-43.623-29.791-71.285-29.791H108.758c-27.662 0-52.134 10.64-71.285 29.791-20.215 19.151-29.791 43.623-29.791 71.285v554.322c0 13.832 3.191 26.601 8.511 39.368 5.32 12.767 12.767 23.406 22.343 31.919 9.575 9.575 21.279 15.959 32.983 21.277 12.767 5.322 25.536 7.448 40.431 7.448h804.355c13.83 0 26.6-3.192 38.303-7.448a107.105 107.105 0 0 0 16.422-9.308c5.67-3.643 10.9-7.864 15.498-13.034 8.51-9.575 14.895-19.152 20.215-31.918 5.32-12.769 7.447-25.536 7.447-39.368l2.129-201.087h-3.194zM863.107 192.336L799.27 68.917c-11.705-12.768-25.537-24.471-42.559-31.918l-0.025-0.01c-14.889-6.378-31.904-9.566-52.109-10.631-20.215-1.063-43.621 5.32-69.156 19.151-24.473 12.768-47.879 25.535-71.287 38.303-29.791 15.96-60.645 31.919-91.499 48.941-35.112 19.152-73.414 39.367-112.781 59.582h503.253z" p-id="5645" fill="#ea9518"></path><path d="M762.031 544.509c-13.832 0-25.537 5.318-35.113 14.895-9.574 9.575-14.895 21.278-14.895 35.11s5.32 26.599 14.895 36.176c9.576 9.576 21.281 14.895 35.113 14.895s25.533-5.318 35.111-14.895c9.574-9.577 14.895-22.344 14.895-36.176s-4.256-25.535-14.895-35.11c-9.578-9.577-21.279-14.895-35.111-14.895z" p-id="5646" fill="#ea9518"></path></svg>