<?xml version="1.0" standalone="no"?><!DOCTYPE svg PUBLIC "-//W3C//DTD SVG 1.1//EN" "http://www.w3.org/Graphics/SVG/1.1/DTD/svg11.dtd"><svg t="1514537638037" class="icon" style="" viewBox="0 0 1024 1024" version="1.1" xmlns="http://www.w3.org/2000/svg" p-id="2539" xmlns:xlink="http://www.w3.org/1999/xlink" width="64" height="64"><defs><style type="text/css"></style></defs><path d="M441.24672 215.05024l-218.73664 0.07168c-36.06528 0-55.50592 27.20256-55.50592 52.82816 0 25.69216 19.03104 51.73248 55.50592 51.73248l458.21952 0c35.10272 0 55.9872-27.41248 55.9872-53.99552 0-13.6704-5.28896-26.31168-14.83776-35.51744-7.1424-6.9376-20.06016-15.04256-41.08288-15.04256L441.24672 215.05024z" p-id="2540" fill="#1296db"></path><path d="M285.91616 848.9984 159.09888 848.9984c-28.36992 0-42.79808-14.42816-42.79808-42.79808L116.3008 172.31872c0-42.79808 0-42.79808 42.79808-42.79808l584.96512 0c37.16608 0 43.69408 6.45632 43.69408 42.79808l0 63.4112c0 16.0768 5.97504 30.70976 16.82944 41.14944 28.16512 27.06944 88.00256 15.59552 87.936-41.14944L892.52352 172.31872c0-106.07104-41.63072-147.42528-148.52608-147.42528L159.03232 24.89344c-51.52256 0-147.35872 0-147.35872 144.60928l0.13824 319.104 0 81.8176c0 86.76352 0 152.50944 0.27648 256.31232 0 15.45728 2.19648 30.43328 6.38976 43.4176 16.2816 50.49344 62.03392 83.33312 116.64896 83.46624l52.82816 0.13824 97.96096-0.27648c15.39072 0 28.98944-5.90848 38.33344-16.6912 7.96672-9.27232 12.43648-21.57056 12.43648-34.75968C336.68608 871.808 314.83904 848.9984 285.91616 848.9984z" p-id="2541" fill="#1296db"></path><path d="M557.4144 405.2736 222.51008 405.2736c-36.06528 0-55.50592 27.20256-55.50592 52.82816 0 25.76384 19.03104 51.79904 55.50592 51.79904l336.07168 0c35.03616 0 55.92064-27.41248 55.92064-53.99552 0-13.6704-5.28896-26.31168-14.83776-35.584C592.51712 413.45024 579.60448 405.2736 557.4144 405.2736z" p-id="2542" fill="#1296db"></path><path d="M401.67424 611.36896l-179.0976 0c-36.06528 0-55.50592 27.20256-55.50592 52.82816 0 25.76384 19.03104 51.79904 55.50592 51.79904L402.8416 715.99616c35.03616 0 55.92064-27.41248 55.92064-53.99552 0-13.6704-5.28896-26.31168-14.83776-35.584C436.77696 619.5456 423.86432 611.36896 401.67424 611.36896z" p-id="2543" fill="#1296db"></path><path d="M1007.72864 539.10016c-6.87104-20.608-17.52064-38.26688-31.67232-52.34688l-36.82304-36.82304c-14.21824-14.08512-31.80544-24.66304-52.14208-31.53408-20.26496-6.87104-39.77728-9.48224-58.87488-7.28064-20.33664 2.19648-36.61824 9.344-48.56832 21.22752L465.5616 749.04064l-5.15072 8.72448c-4.60288 16.00512-44.38016 158.41792-4.87936 215.16288 12.50304 17.86368 39.0912 19.92192 58.05056 19.92192 59.21792 0 151.9616-24.45824 155.8784-25.48736l5.36064-1.44384 319.104-319.44704c11.81696-11.67872 18.8928-28.02688 21.22752-48.56832C1017.07264 579.35872 1014.67136 559.6416 1007.72864 539.10016zM931.74784 603.54048l-0.68608 0.75776c-6.59456-16.76288-16.14336-31.4624-28.6464-43.96544l-36.6848-36.82304c-12.5696-12.50304-27.27424-21.9136-44.03712-28.4416l1.44384-1.44384c4.3264-4.66944 14.49472-6.25152 27.61728-4.46464 16.62464 2.06336 29.68064 8.0384 39.77728 18.20672l28.09856 28.09856c10.16832 10.16832 16.14336 23.2192 18.27328 39.84384C937.99936 583.0656 938.75712 597.07904 931.74784 603.54048zM861.26592 672.3072l-153.12896 156.288c-0.61952-1.58208-1.16736-3.29728-1.64864-4.94592-3.43552-11.47392-5.2224-21.98528-5.4272-31.2576-0.13824-7.07584 0.2048-13.39904 0.82432-19.23584l151.82336-152.99072c3.84512 6.528 6.59456 13.8752 8.448 22.25664C864.90624 655.40608 864.62976 665.43616 861.26592 672.3072zM598.6304 719.36512l151.27552-152.576c4.3264-4.39808 14.49472-5.77024 27.68384-4.19328 10.92096 1.44384 20.33664 4.46464 28.36992 9.5488l-151.7568 153.53856c-5.08416 0.54784-11.0592 0.82432-19.23584 0.82432-9.06752-0.13824-19.51232-1.92512-31.11936-5.4272C602.06592 720.53248 600.35072 719.91296 598.6304 719.36512zM575.48288 908.4928c-6.25152-13.12256-14.01344-24.32-23.08096-33.45408-9.13408-9.06752-20.33664-16.76288-33.38752-23.0144l12.3648-64.57856 15.1808-15.1808c12.02176 7.1424 25.34912 13.2608 39.77728 18.33984 13.80864 4.66944 27.20256 7.96672 39.98208 9.82528 1.64864 12.91776 4.94592 26.65472 9.96352 40.87808 5.08416 14.83776 11.26912 28.30336 18.54976 40.32512l-14.63296 14.63296L575.48288 908.4928z" p-id="2544" fill="#1296db"></path></svg>