<?xml version="1.0" standalone="no"?><!DOCTYPE svg PUBLIC "-//W3C//DTD SVG 1.1//EN" "http://www.w3.org/Graphics/SVG/1.1/DTD/svg11.dtd"><svg t="1514537686462" class="icon" style="" viewBox="0 0 1024 1024" version="1.1" xmlns="http://www.w3.org/2000/svg" p-id="2992" xmlns:xlink="http://www.w3.org/1999/xlink" width="64" height="64"><defs><style type="text/css"></style></defs><path d="M857.979273 733.679908c-31.160546-11.49205-34.496617-33.084415-34.235667-60.074871 1.238235-129.58489 0.557717-259.18513 0.557717-388.780253 0-9.240714 0-18.486544 0-31.651746-39.603058 0-76.867796 0.025583-114.137651-0.005117-51.340709-0.04605-57.721201-6.365143-57.787718-57.363034-0.04605-37.326138-0.010233-74.647159-0.010233-113.226883-149.028252 0-294.444131 0-441.543397 0 0 291.24621 0 581.423035 0 874.751731 9.992865 0 19.080078 0 28.167291 0 103.162384 0 206.345236 1.033568 309.482037-0.700984 26.959756-0.455384 43.072163 7.726178 52.04681 34.327767-3.525388 0.332584-6.580043 0.874951-9.639814 0.880068-129.595123 0.04605-259.190246-0.209784-388.78537 0.312117-21.259781 0.086983-27.880758-8.345296-27.850057-29.083176 0.465617-295.851217 0.516784-591.70755-0.066517-887.558767-0.04605-22.886884 8.401579-29.252026 30.075811-29.159926C353.454734 46.981302 502.66207 46.387768 651.864288 47.267836c11.149233 0.066517 24.95402 5.740908 32.925798 13.518253 54.30838 52.972928 107.665058 106.933373 160.515185 161.364553 6.89216 7.101944 12.950302 18.680977 12.996352 28.213341 0.787968 157.726598 0.557717 315.458312 0.511667 473.190026C858.818408 726.670064 858.316974 729.781002 857.979273 733.679908z" p-id="2993" fill="#e56e24"></path><path d="M857.610873 828.07743c0 26.545306 0 50.01549 0 76.857563-22.237066 0-44.064798 0.547484-65.84648-0.194434-14.111787-0.480967-20.067596 4.451507-19.509879 19.085195 0.834018 21.848199 0.2149 43.752681 0.2149 66.808415-26.274122 0-49.718723 0-76.617079 0 0-13.902004 0.16885-27.174656-0.0307-40.447309-0.787968-52.36916 7.634078-44.494599-46.525918-45.241633-12.546085-0.173967-25.09217-0.025583-38.344356-0.025583-0.921001-5.536241-1.888053-8.729046-1.913636-11.921851-0.13815-20.328546-0.071633-40.66221-0.071633-64.915245 22.104032 0 43.020996-0.956818 63.804927 0.286534 18.24606 1.089852 24.212102-6.324209 23.311567-23.772068-1.038685-20.180163-0.240484-40.452426-0.240484-62.044791 25.828971 0 49.319622 0 76.622196 0 0 21.536082 0.552601 43.317763-0.189317 65.053395-0.532134 15.518873 5.730675 21.326298 21.131864 20.69183C814.38521 827.422495 835.419857 828.07743 857.610873 828.07743z" p-id="2994" fill="#e56e24"></path><path d="M727.350582 308.760586c0 10.049148 0 18.972628 0 29.635777-140.652256 0-279.86161 0-421.393934 0-0.440034-9.910998-0.834018-18.865178-1.309869-29.635777C446.301904 308.760586 586.345276 308.760586 727.350582 308.760586z" p-id="2995" fill="#e56e24"></path><path d="M727.171499 439.977694c0 9.655164 0 18.593994 0 29.088293-139.746605 0-279.088992 0-421.046 0-0.486084-8.84673-0.972168-17.698576-1.601519-29.088293C445.92327 439.977694 585.726158 439.977694 727.171499 439.977694z" p-id="2996" fill="#e56e24"></path><path d="M305.598481 599.459311c0-11.61485 0-19.980613 0-29.92231 140.304322 0 279.656943 0 421.112517 0 0 9.440264 0 18.849828 0 29.92231C586.381092 599.459311 447.176855 599.459311 305.598481 599.459311z" p-id="2997" fill="#e56e24"></path><path d="M305.818498 730.978304c0-11.446 0-19.745246 0-30.275361 117.161605 0 233.760376 0 353.219367 0-25.869905 22.886884-51.729576 31.881997-84.394424 31.047979C486.191496 729.494469 397.642332 730.978304 305.818498 730.978304z" p-id="2998" fill="#e56e24"></path><path d="M556.233648 829.980832c5.167841 23.526468-3.156988 31.094029-26.182022 30.705162-73.761975-1.253585-147.554649-0.465617-223.880078-0.465617-0.557717-10.601749-1.023335-19.433128-1.591286-30.239544C388.995153 829.980832 471.788058 829.980832 556.233648 829.980832z" p-id="2999" fill="#e56e24"></path><path d="M305.818498 207.593704c0-10.407315 0-18.691211 0-28.965492 82.368221 0 163.58519 0 247.524229 0 0.511667 8.979763 1.018218 17.867426 1.652686 28.965492C471.521991 207.593704 389.614271 207.593704 305.818498 207.593704z" p-id="3000" fill="#e56e24"></path></svg>